<svg width="241" height="257" viewBox="0 0 241 257" fill="none" xmlns="http://www.w3.org/2000/svg">
<path d="M152.207 57.1079L154.747 59.0679C162.407 63.8779 165.828 72.8979 161.038 81.1179C155.368 90.8679 148.377 95.8779 137.938 103.348C134.011 106.155 130.061 108.878 126.087 111.518C123.354 109.711 121.144 107.408 119.458 104.608L119.208 63.8579C119.298 50.5079 122.497 26.6179 109.427 17.6579C101.477 12.2079 95.3975 12.4279 84.2875 12.3879C68.8542 12.3279 53.4242 12.3346 37.9975 12.4079C21.6475 12.4879 12.6675 23.9779 12.8175 39.6179C13.0242 61.2112 13.0808 82.8279 12.9875 104.468C12.9375 116.468 14.0975 123.878 24.0775 130.018C27.7108 132.805 31.8508 134.235 36.4975 134.308C51.2375 134.521 65.9942 134.418 80.7675 133.998C87.7275 134.658 93.7775 132.488 100.568 129.908C96.7808 137.168 94.1275 144.781 92.6075 152.748C92.1608 152.741 91.9442 153.028 91.9575 153.608C81.9875 170.578 77.3975 189.778 87.3575 207.718C89.6775 211.898 93.9775 219.078 98.0775 223.208C115.138 240.368 139.858 247.108 163.528 242.018C180.808 240.088 195.078 228.518 199.318 211.298C199.394 210.977 199.584 210.702 199.848 210.528C204.761 207.308 208.577 208.268 211.297 213.408C203.227 256.618 152.418 262.968 118.568 250.998C105.574 246.405 94.3175 238.174 84.7975 226.308C65.9275 202.808 66.5975 174.658 79.4275 148.248C80.1008 146.868 79.6708 146.174 78.1375 146.168C64.4508 146.101 51.1242 146.084 38.1575 146.118C32.0875 146.128 25.9575 145.178 20.8175 143.288C12.5575 140.248 4.7075 129.188 1.8575 121.778C0.9175 119.331 0.410829 116.024 0.337496 111.858C0.0374961 93.4245 -0.0624993 71.5912 0.0375007 46.3578C0.0575007 40.8778 0.240829 36.2078 0.587496 32.3478C1.8875 17.7078 11.6375 4.29783 26.2575 1.01783C28.3975 0.537827 34.7908 0.25116 45.4375 0.157827C71.6242 -0.0621733 89.2875 -0.0521746 98.4275 0.187825C113.227 0.577825 126.507 14.3478 130.037 27.9978C130.904 31.3512 131.288 36.6178 131.188 43.7978C130.954 59.9978 130.888 76.2178 130.988 92.4578C130.994 93.9578 131.577 94.2312 132.737 93.2778C143.117 84.7278 150.017 73.9378 148.957 60.1078C148.764 57.5745 149.847 56.5746 152.207 57.1079Z" fill="#02152A"/>
<path d="M119.208 63.8579L118.988 63.3779C118.868 63.1046 118.774 63.1079 118.708 63.3879C118.394 64.7279 118.234 65.7179 118.227 66.3579C118.167 72.4112 118.201 85.1812 118.327 104.668L116.537 110.588C112.991 118.421 107.668 124.861 100.568 129.908C93.7775 132.488 87.7275 134.658 80.7675 133.998C65.5208 133.265 50.2675 133.045 35.0075 133.338C34.8877 133.34 34.7646 133.307 34.6493 133.241C34.534 133.174 34.4302 133.077 34.3475 132.958C34.2275 132.785 34.1075 132.685 33.9875 132.658C30.6075 131.931 27.3042 131.051 24.0775 130.018C14.0975 123.878 12.9375 116.468 12.9875 104.468C13.0808 82.8279 13.0242 61.2112 12.8175 39.6179C12.6675 23.9779 21.6475 12.4879 37.9975 12.4079C53.4242 12.3346 68.8542 12.3279 84.2875 12.3879C95.3975 12.4279 101.477 12.2079 109.427 17.6579C122.497 26.6179 119.298 50.5079 119.208 63.8579ZM49.8075 72.3479C41.1075 75.3879 21.6275 88.8479 28.4175 100.448C40.6775 121.378 71.1675 121.148 89.8675 110.978C93.5275 108.988 99.4075 103.448 100.887 98.9879C104.617 87.7879 89.7075 77.1979 80.7875 73.3079C80.2475 73.0679 80.2375 72.8112 80.7575 72.5379C82.3975 71.6679 83.7275 70.3079 84.6275 68.5679C90.0175 58.2179 88.5275 46.1879 79.4075 38.6779C70.0975 31.0079 57.3075 31.2879 49.0575 39.4279C45.3475 43.0779 44.3875 46.2779 43.4975 51.3379C42.2308 58.5512 44.4275 65.1846 50.0875 71.2379C50.1655 71.321 50.2213 71.4224 50.2499 71.5328C50.2784 71.6432 50.2787 71.7589 50.2509 71.8694C50.223 71.98 50.1678 72.0817 50.0903 72.1653C50.0128 72.2489 49.9156 72.3117 49.8075 72.3479Z" fill="#01FCD5"/>
<path d="M130.848 164.398C131.768 174.458 135.261 183.341 141.327 191.048C143.834 194.241 147.151 195.398 151.277 194.518C161.411 195.045 171.571 194.971 181.758 194.298C199.828 193.738 185.297 216.548 180.457 221.638C170.677 231.918 153.788 233.298 140.258 230.808C128.451 228.635 118.384 224.185 110.057 217.458C109.244 216.478 108.378 215.528 107.458 214.608C104.418 211.598 102.257 207.578 99.7575 204.128C96.8508 193.108 97.5342 182.371 101.808 171.918C102.008 171.425 102.084 170.905 102.037 170.358L102.658 170.988C107.524 172.001 109.794 175.208 109.467 180.608C107.947 205.908 130.898 221.378 154.318 219.958C161.878 219.498 171.208 215.628 174.068 207.888C174.087 207.835 174.093 207.778 174.086 207.722C174.078 207.666 174.058 207.613 174.025 207.567C173.993 207.521 173.95 207.483 173.9 207.457C173.85 207.431 173.794 207.418 173.737 207.418C166.191 207.445 158.647 207.495 151.107 207.568C140.467 207.678 134.757 203.948 128.807 195.068C114.307 173.418 115.238 142.938 131.658 122.538C141.918 109.778 154.897 102.978 168.587 95.4779C173.277 92.9079 175.787 89.3679 176.087 83.7679C176.827 70.3279 174.568 56.1479 163.478 47.1479C159.764 44.1346 155.684 42.5746 151.237 42.4679L149.188 32.908C149.14 32.6913 149.144 32.4668 149.2 32.2502C149.256 32.0335 149.362 31.8299 149.511 31.6536C149.659 31.4774 149.847 31.3327 150.061 31.2298C150.274 31.127 150.509 31.0683 150.747 31.058C160.857 30.568 173.018 36.698 179.308 44.818C191.398 60.418 187.358 76.688 179.868 93.238C172.078 110.428 154.598 115.128 142.788 128.188C135.401 136.348 131.151 146.258 130.037 157.918C129.784 160.638 130.054 162.798 130.848 164.398Z" fill="#02152A"/>
<path d="M49.8075 72.3479C49.9156 72.3117 50.0128 72.2489 50.0903 72.1653C50.1678 72.0817 50.223 71.98 50.2509 71.8694C50.2787 71.7589 50.2784 71.6432 50.2499 71.5328C50.2213 71.4224 50.1655 71.321 50.0875 71.2379C44.4275 65.1846 42.2308 58.5512 43.4975 51.3379C44.3875 46.2779 45.3475 43.0779 49.0575 39.4279C57.3075 31.2879 70.0975 31.0079 79.4075 38.6779C88.5275 46.1879 90.0175 58.2179 84.6275 68.5679C83.7275 70.3079 82.3975 71.6679 80.7575 72.5379C80.2375 72.8112 80.2475 73.0679 80.7875 73.3079C89.7075 77.1979 104.617 87.7879 100.887 98.9879C99.4075 103.448 93.5275 108.988 89.8675 110.978C71.1675 121.148 40.6775 121.378 28.4175 100.448C21.6275 88.8479 41.1075 75.3879 49.8075 72.3479ZM67.0111 66.2531C68.2812 65.9947 69.4863 65.4803 70.5576 64.7392C71.6288 63.9982 72.5452 63.045 73.2545 61.9342C73.9638 60.8233 74.452 59.5765 74.6914 58.2649C74.9307 56.9533 74.9165 55.6027 74.6494 54.2901C74.3823 52.9775 73.8677 51.7287 73.1349 50.6149C72.4022 49.5011 71.4656 48.5442 70.3786 47.7988C69.2916 47.0534 68.0756 46.534 66.8 46.2705C65.5243 46.0069 64.214 46.0043 62.9439 46.2627C61.6738 46.5211 60.4687 47.0355 59.3974 47.7766C58.3262 48.5176 57.4098 49.4708 56.7005 50.5817C55.9912 51.6925 55.5029 52.9393 55.2636 54.2509C55.0243 55.5625 55.0386 56.9131 55.3056 58.2257C55.5727 59.5383 56.0873 60.7872 56.8201 61.9009C57.5528 63.0147 58.4895 63.9716 59.5764 64.7171C60.6634 65.4625 61.8794 65.9818 63.155 66.2453C64.4307 66.5089 65.741 66.5115 67.0111 66.2531ZM89.5675 95.678C77.7275 76.188 53.2175 75.4279 40.3975 94.1179C39.1175 95.9913 39.4108 97.5646 41.2775 98.838C55.0875 108.288 70.2475 107.638 85.0175 100.898C85.8642 100.518 87.3575 99.0513 89.4975 96.4979C89.5937 96.3846 89.6521 96.2445 89.6647 96.0973C89.6773 95.9502 89.6433 95.8035 89.5675 95.678Z" fill="#02152A"/>
<path d="M102.658 170.988C105.078 158.348 107.438 148.305 109.738 140.858C111.864 133.951 115.167 126.431 119.647 118.298L126.087 111.518C130.061 108.878 134.011 106.155 137.938 103.348C148.377 95.8779 155.368 90.8679 161.038 81.1179C165.828 72.8979 162.407 63.8779 154.747 59.0679C155.027 57.8946 154.761 56.9112 153.948 56.1179C153.754 55.938 153.619 55.6505 153.568 55.3079L153.288 53.6079L151.237 42.4679C155.684 42.5746 159.764 44.1346 163.478 47.1479C174.568 56.1479 176.827 70.3279 176.087 83.7679C175.787 89.3679 173.277 92.9079 168.587 95.4779C154.897 102.978 141.918 109.778 131.658 122.538C115.238 142.938 114.307 173.418 128.807 195.068C134.757 203.948 140.467 207.678 151.107 207.568C158.647 207.495 166.191 207.445 173.737 207.418C173.794 207.418 173.85 207.431 173.9 207.457C173.95 207.483 173.993 207.521 174.025 207.567C174.058 207.613 174.078 207.666 174.086 207.722C174.093 207.778 174.087 207.835 174.068 207.888C171.208 215.628 161.878 219.498 154.318 219.958C130.898 221.378 107.947 205.908 109.467 180.608C109.794 175.208 107.524 172.001 102.658 170.988Z" fill="#04F6D5"/>
<path d="M55.3056 58.2257C56.4287 63.7459 61.6695 67.3399 67.0111 66.2531C72.3527 65.1663 75.7725 59.8103 74.6494 54.2901C73.5263 48.7699 68.2855 45.1759 62.9439 46.2627C57.6023 47.3495 54.1825 52.7055 55.3056 58.2257Z" fill="#FEFEFE"/>
<path d="M153.288 53.6079L153.568 55.3079C153.619 55.6505 153.754 55.938 153.948 56.1179C154.761 56.9112 155.027 57.8946 154.747 59.0679L152.207 57.1079C153.154 56.1746 153.514 55.0079 153.288 53.6079Z" fill="#4AF7F6"/>
<path d="M119.208 63.8579L119.458 104.608L118.327 104.668C118.201 85.1812 118.167 72.4112 118.227 66.3579C118.234 65.7179 118.394 64.7279 118.708 63.3879C118.774 63.1079 118.868 63.1046 118.988 63.3779L119.208 63.8579Z" fill="#4AF7F6"/>
<path d="M116.537 110.588L119.647 118.298C115.167 126.431 111.864 133.951 109.738 140.858C107.438 148.305 105.078 158.348 102.658 170.988L102.037 170.358C99.4708 164.305 96.3275 158.435 92.6075 152.748C94.1275 144.781 96.7808 137.168 100.568 129.908C107.668 124.861 112.991 118.421 116.537 110.588Z" fill="#FEFEFE"/>
<path d="M212.427 185.418L179.008 185.298C171.121 185.398 165.281 184.918 161.488 183.858C128.408 174.568 139.398 130.338 170.438 128.918C186.731 128.171 200.584 128.061 211.998 128.588C225.848 129.238 238.418 140.238 240.048 154.318C242.038 171.478 228.957 183.908 212.427 185.418ZM183.497 140.648C175.497 139.448 162.737 140.618 157.537 147.798C154.891 151.458 153.704 155.731 153.977 160.618C156.987 170.088 163.308 172.958 172.748 173.028C187.234 173.128 198.234 173.055 205.747 172.808C210.657 173.068 216.567 172.978 220.457 170.108L221.747 169.398C229.737 163.968 229.928 153.218 224.118 146.178C216.908 139.228 207.858 140.188 198.648 140.388C198.539 140.391 198.436 140.428 198.361 140.489C198.286 140.551 198.245 140.633 198.248 140.718V141.068C197.848 140.541 197.118 140.285 196.058 140.298C189.671 140.365 185.484 140.481 183.497 140.648Z" fill="#02152A"/>
<path d="M80.7675 133.998C65.9942 134.418 51.2375 134.521 36.4975 134.308C31.8508 134.235 27.7108 132.805 24.0775 130.018C27.3042 131.051 30.6075 131.931 33.9875 132.658C34.1075 132.685 34.2275 132.785 34.3475 132.958C34.4302 133.077 34.534 133.174 34.6493 133.241C34.7646 133.307 34.8877 133.34 35.0075 133.338C50.2675 133.045 65.5208 133.265 80.7675 133.998Z" fill="#4AF7F6"/>
<path d="M183.497 140.648C183.677 141.508 176.257 144.178 174.997 144.898C172.131 145.338 170.797 146.978 170.997 149.818L171.987 150.588C169.321 150.788 167.121 151.911 165.388 153.958C160.028 152.638 154.387 154.428 153.977 160.618C153.704 155.731 154.891 151.458 157.537 147.798C162.737 140.618 175.497 139.448 183.497 140.648Z" fill="#FEFEFE"/>
<path d="M224.118 146.178C220.418 146.828 218.068 145.168 214.908 144.978C209.118 144.628 204.838 144.308 199.288 142.418C199.166 142.377 199.05 142.298 198.95 142.187C198.849 142.076 198.766 141.936 198.708 141.778C198.614 141.525 198.461 141.288 198.248 141.068V140.718C198.245 140.633 198.286 140.551 198.361 140.489C198.436 140.428 198.539 140.391 198.648 140.388C207.858 140.188 216.908 139.228 224.118 146.178Z" fill="#FEFEFE"/>
<path d="M174.997 144.898C173.164 146.138 171.831 147.778 170.997 149.818C170.797 146.978 172.131 145.338 174.997 144.898Z" fill="#9B9C98" fill-opacity="0.627"/>
<path d="M171.987 150.588C181.907 152.848 174.188 167.658 167.408 160.258C166.028 158.738 165.868 156.008 165.388 153.958C167.121 151.911 169.321 150.788 171.987 150.588Z" fill="#02152A"/>
<path d="M191.607 162.148C194.7 162.148 197.207 159.641 197.207 156.548C197.207 153.455 194.7 150.948 191.607 150.948C188.515 150.948 186.008 153.455 186.008 156.548C186.008 159.641 188.515 162.148 191.607 162.148Z" fill="#041420"/>
<path d="M91.9575 153.608C91.5642 156.228 91.1408 158.848 90.6875 161.468C88.6375 173.348 90.6275 184.558 94.4575 196.668C95.5775 200.201 97.3442 202.688 99.7575 204.128C102.257 207.578 104.418 211.598 107.458 214.608C108.378 215.528 109.244 216.478 110.057 217.458C113.751 223.191 118.447 227.961 124.147 231.768C127.467 234.961 131.407 237.028 135.967 237.968C144.914 240.508 154.101 241.858 163.528 242.018C139.858 247.108 115.138 240.368 98.0775 223.208C93.9775 219.078 89.6775 211.898 87.3575 207.718C77.3975 189.778 81.9875 170.578 91.9575 153.608Z" fill="#04ACF9"/>
<path d="M221.747 169.398L220.457 170.108L217.237 169.728C216.882 169.683 216.56 169.733 216.327 169.868C214.901 170.708 213.401 171.041 211.827 170.868C214.214 167.741 216.964 164.991 220.077 162.618C220.368 162.398 220.693 162.282 220.997 162.288C223.117 162.318 221.147 167.608 220.897 168.848C220.884 168.907 220.884 168.968 220.897 169.027C220.909 169.086 220.935 169.141 220.971 169.19C221.007 169.238 221.053 169.278 221.106 169.307C221.159 169.336 221.217 169.354 221.277 169.358L221.747 169.398Z" fill="#9B9C98" fill-opacity="0.627"/>
<path d="M130.848 164.398C138.914 173.611 145.724 183.651 151.277 194.518C147.151 195.398 143.834 194.241 141.327 191.048C135.261 183.341 131.768 174.458 130.848 164.398Z" fill="#F3C4A5"/>
<path d="M220.457 170.108C216.567 172.978 210.657 173.068 205.747 172.808L211.827 170.868C213.401 171.041 214.901 170.708 216.327 169.868C216.56 169.733 216.882 169.683 217.237 169.728L220.457 170.108Z" fill="#FEFEFE"/>
<path d="M179.008 185.298L212.427 185.418C213.897 194.908 214.507 204.098 211.297 213.408C208.577 208.268 204.761 207.308 199.848 210.528C199.584 210.702 199.394 210.977 199.318 211.298C195.078 228.518 180.808 240.088 163.528 242.018C154.101 241.858 144.914 240.508 135.967 237.968L124.147 231.768C118.447 227.961 113.751 223.191 110.057 217.458C118.384 224.185 128.451 228.635 140.258 230.808C153.788 233.298 170.677 231.918 180.457 221.638C185.297 216.548 199.828 193.738 181.758 194.298C180.358 191.345 179.441 188.345 179.008 185.298Z" fill="#F3C4A5"/>
<path d="M135.967 237.968L124.147 231.768C127.467 234.961 131.407 237.028 135.967 237.968Z" fill="#3DA3BD"/>
</svg>
